# xmcd
#
# Track frame offsets: 
#        150
#        17953
#        38102
#        54344
#        75692
#        91218
#        106838
#        130124
#        154532
#        172933
#        190592
#
# Disc length: 2767 seconds
#
# Revision: 0
# Processed by: cddbd v1.5.2PL0 Copyright (c) Steve Scherf et al.
# Submitted via: ExactAudioCopy v0.95a4
#
DISCID=760acd0b
DTITLE=Various Artist - Breaking Southern Ground
DYEAR=2010
DGENRE=Country
TTITLE0=Goodbye Lullaby
TTITLE1=Bar
TTITLE2=Money Don't Make You Happy
TTITLE3=Another Sunday Morning
TTITLE4=Untouchable
TTITLE5=Ribbon Of Red
TTITLE6=Reno
TTITLE7=Wnerever We Break Down
TTITLE8=Jah Made
TTITLE9=My Name Is Money
TTITLE10=Cut It Loose
EXTD=
EXTT0=
EXTT1=
EXTT2=
EXTT3=
EXTT4=
EXTT5=
EXTT6=
EXTT7=
EXTT8=
EXTT9=
EXTT10=
PLAYORDER=
